# xmcd
#
# Track frame offsets: 
#        150
#        17465
#        36277
#        55747
#        71600
#        84080
#        104740
#        124935
#        140575
#        155570
#        170252
#        189630
#        204452
#        220897
#        231225
#        247230
#        263770
#        279465
#
# Disc length: 3970 seconds
#
# Revision: 0
# Processed by: cddbd v1.4PL0 Copyright (c) Steve Scherf et al.
# Submitted via: ExactAudioCopy v0.95a3
#
DISCID=080f8012
DTITLE=Little Mack Simmons - Little Mack Is Back
DYEAR=1996
DGENRE=Blues
TTITLE0=Leaving In The Morning
TTITLE1=Bad Intentions
TTITLE2=Mother-In-Law Blues
TTITLE3=Let Me Explain My Love
TTITLE4=My Babe
TTITLE5=Revelation Blues
TTITLE6=You're So Special
TTITLE7=I Got What It Takes
TTITLE8=Five Long Years
TTITLE9=You're So Fine
TTITLE10=You Mistreated Me
TTITLE11=St James Infirmary
TTITLE12=Lie To Me
TTITLE13=I Wish You Would
TTITLE14=Chicken Heads
TTITLE15=White Cloud Of Confusion
TTITLE16=The Sky Is Crying
TTITLE17=Dust My Broom
EXTD=
EXTT0=
EXTT1=
EXTT2=
EXTT3=
EXTT4=
EXTT5=
EXTT6=
EXTT7=
EXTT8=
EXTT9=
EXTT10=
EXTT11=
EXTT12=
EXTT13=
EXTT14=
EXTT15=
EXTT16=
EXTT17=
PLAYORDER=
